<svg width="48" height="37" viewBox="0 0 48 37" fill="none" xmlns="http://www.w3.org/2000/svg">
<path d="M47.9996 15.0078H36.4441V22.0452H47.9996V15.0078Z" fill="white"/>
<path d="M48.0001 0.933105H24.889L26.3335 7.97051H48.0001V0.933105Z" fill="white"/>
<path d="M48.0001 29.083H27.7779L24.889 36.1204H48.0001V29.083Z" fill="white"/>
<path d="M12.4444 15.0078H0V22.0452H12.4444V15.0078Z" fill="white"/>
<path d="M15.6549 15.1542C15.9304 12.272 18.1923 7.64132 23.9088 7.64132C29.6253 7.64132 31.6661 11.8769 31.7821 15.1359L15.6549 15.1542ZM40.065 21.3723C40.2612 19.462 40.2612 17.5364 40.065 15.6261L39.9998 15.1469C38.6948 5.34063 31.561 0.933105 24.148 0.933105C14.5167 0.933105 7.11096 7.68521 7.11096 18.7607C7.11096 29.4119 14.3789 36.1201 24.1807 36.1201C32.1555 36.1201 37.2883 30.4032 38.5099 26.6467H29.8826C28.3493 28.5158 26.0982 29.4083 23.6804 29.4083C18.8122 29.4083 15.9086 25.6482 15.6186 21.8149H40.0106L40.065 21.3723Z" fill="#1D1D1B"/>
</svg>
