<svg width="139" height="26" viewBox="0 0 139 26" fill="none" xmlns="http://www.w3.org/2000/svg">
<g clip-path="url(#clip0)">
<path d="M39.0234 10.1594H24.2163V15.4297H39.0234V10.1594Z" fill="white"/>
<path d="M81.6233 5.41345H61.9355V10.3675H81.6233V5.41345Z" fill="white"/>
<path d="M81.6233 14.9919H61.9355V19.946H81.6233V14.9919Z" fill="white"/>
<path d="M96.6387 20.1783H118.346L114.846 25.1216H96.6387V20.1783Z" fill="white"/>
<path d="M96.6387 5.71351H118.338L114.846 0.770264H96.6387V5.71351Z" fill="white"/>
<path d="M123.446 12.9756L121.686 15.4459H96.0024V10.5054H121.705L123.446 12.9756Z" fill="white"/>
<path d="M38.7313 25.1351H44.1236V9.57027L50.6203 17.5541L56.8139 9.57027V25.1351H62.2116V0.77027H57.5258L50.4877 9.82703L43.4279 0.77027H38.7313V25.1351ZM6.38033 10.5081C6.58606 8.37838 8.2752 4.95676 12.5441 4.95676C16.813 4.95676 18.337 8.08649 18.4236 10.4946L6.38033 10.5081ZM24.6091 15.1027C24.7555 13.6912 24.7555 12.2683 24.6091 10.8568L24.5603 10.5027C23.5858 3.25676 18.2585 0 12.7228 0C5.53034 0 0 4.98919 0 13.173C0 21.0432 5.42747 26 12.7471 26C18.7024 26 22.5355 21.7757 23.4478 19H17.0052C15.8601 20.3811 14.1791 21.0405 12.3736 21.0405C8.7381 21.0405 6.56981 18.2622 6.35326 15.4297H24.5685L24.6091 15.1027ZM96.9095 25.1351H81.3309V0.77027H96.9095V5.72432H86.7259V10.5054H96.295V15.4459H86.7259V20.1784H96.9095V25.1351ZM114.732 0.783784H121.272L126.415 8.84324L131.559 0.77027H138.055L129.664 12.973L138.055 25.1189H131.54L126.415 17.2568L121.294 25.1351H114.74L123.167 12.973L114.992 1.14054" fill="#1D1D1B"/>
</g>
<defs>
<clipPath id="clip0">
<rect width="138.069" height="26" fill="white"/>
</clipPath>
</defs>
</svg>
