<svg width="21" height="19" viewBox="0 0 21 19" fill="none" xmlns="http://www.w3.org/2000/svg">
<path d="M1 0C0.447715 0 0 0.447715 0 1C0 1.55228 0.447715 2 1 2H1.79568C2.26438 2 2.67019 2.32553 2.77187 2.78307L4.53549 10.5613C4.80501 11.9763 6.04211 13 7.48251 13H16.5175C17.9579 13 19.195 11.9763 19.4645 10.5613L20.7739 4.68711C20.8913 4.07088 20.4189 3.5 19.7915 3.5H4.97997L4.72424 2.34921C4.41922 0.976596 3.20178 0 1.79568 0H1Z" fill="currentColor"/>
<path d="M8.5 19C9.88071 19 11 17.8807 11 16.5C11 15.1193 9.88071 14 8.5 14C7.11929 14 6 15.1193 6 16.5C6 17.8807 7.11929 19 8.5 19Z" fill="currentColor"/>
<path d="M15.5 19C16.8807 19 18 17.8807 18 16.5C18 15.1193 16.8807 14 15.5 14C14.1193 14 13 15.1193 13 16.5C13 17.8807 14.1193 19 15.5 19Z" fill="currentColor"/>
</svg>
