<svg width="32" height="28" viewBox="0 0 32 28" fill="none" xmlns="http://www.w3.org/2000/svg">
<path d="M12.2481 9.58609L11.4375 9.00052C11.4318 9.00843 11.4262 9.01643 11.4207 9.02451L12.2481 9.58609ZM18.2117 1.33056L19.0223 1.91613L19.0309 1.90425L19.0391 1.89214L18.2117 1.33056ZM19.3228 1.16411L19.9407 0.377827V0.377827L19.3228 1.16411ZM22.2914 3.49688L21.6736 4.28316V4.28316L22.2914 3.49688ZM22.5653 4.15403L23.5573 4.28027V4.28027L22.5653 4.15403ZM21.8275 9.95166L20.8355 9.82542L20.6922 10.9517H21.8275V9.95166ZM30.9759 11.6731L29.9926 11.4911V11.4911L30.9759 11.6731ZM28.3621 25.794L27.3788 25.612L28.3621 25.794ZM12 27V28V27ZM4.2188 10.1669V11.1669V10.1669ZM1 13.349H2H1ZM12 10.1669H13V9.16692H12V10.1669ZM4.2188 27L4.2188 26H4.2188V27ZM1 23.8179H0H1ZM7.43759 22.2269H6.43759H7.43759ZM5.8282 23.8179V24.8179H5.8282L5.8282 23.8179ZM4.2188 22.2269H5.2188H4.2188ZM13.0587 10.1717L19.0223 1.91613L17.4011 0.744987L11.4375 9.00052L13.0587 10.1717ZM18.7049 1.95039L21.6736 4.28316L22.9093 2.71059L19.9407 0.377827L18.7049 1.95039ZM21.5733 4.0278L20.8355 9.82542L22.8195 10.0779L23.5573 4.28027L21.5733 4.0278ZM21.8275 10.9517H29.4848V8.95166H21.8275V10.9517ZM29.9926 11.4911L27.3788 25.612L29.3454 25.976L31.9592 11.8552L29.9926 11.4911ZM26.8711 26H12V28H26.8711V26ZM13 27V10.3889H11V27H13ZM29.4848 10.9517C29.8448 10.9517 30.0374 11.2491 29.9926 11.4911L31.9592 11.8552C32.2466 10.3026 31.0115 8.95166 29.4848 8.95166V10.9517ZM21.6736 4.28316C21.6063 4.23032 21.5596 4.13532 21.5733 4.0278L23.5573 4.28027C23.6346 3.67275 23.381 3.08126 22.9093 2.71059L21.6736 4.28316ZM19.0391 1.89214C18.9942 1.95828 18.9295 1.98982 18.8771 1.99767C18.8249 2.00549 18.7602 1.99384 18.7049 1.95039L19.9407 0.377827C19.1452 -0.2473 17.962 -0.0823326 17.3843 0.768979L19.0391 1.89214ZM27.3788 25.612C27.3417 25.8125 27.1467 26 26.8711 26V28C28.0627 28 29.1242 27.1712 29.3454 25.976L27.3788 25.612ZM11.4207 9.02451C11.1476 9.42683 11 9.90111 11 10.3889H13C13 10.3061 13.0248 10.2224 13.0755 10.1477L11.4207 9.02451ZM4.2188 9.16692C1.89968 9.16692 1.49012e-06 11.0285 1.2517e-06 13.349H2C2 12.1546 2.98254 11.1669 4.2188 11.1669V9.16692ZM12 9.16692H4.2188V11.1669H12V9.16692ZM13 27V10.1669H11V27H13ZM4.2188 28L12 28V26L4.2188 26L4.2188 28ZM0 23.8179C-2.38419e-07 26.1384 1.89968 28 4.2188 28V26C2.98253 26 2 25.0123 2 23.8179H0ZM1.2517e-06 13.349L0 23.8179H2L2 13.349H1.2517e-06ZM6.43759 22.2269C6.43759 22.5425 6.17561 22.8179 5.8282 22.8179L5.8282 24.8179C7.25847 24.8179 8.43759 23.6687 8.43759 22.2269H6.43759ZM5.8282 21.6359C6.17561 21.6359 6.43759 21.9113 6.43759 22.2269H8.43759C8.43759 20.7851 7.25847 19.6359 5.8282 19.6359V21.6359ZM5.2188 22.2269C5.2188 21.9113 5.48078 21.6359 5.8282 21.6359V19.6359C4.39792 19.6359 3.2188 20.7851 3.2188 22.2269H5.2188ZM5.8282 22.8179C5.48078 22.8179 5.2188 22.5425 5.2188 22.2269H3.2188C3.2188 23.6687 4.39792 24.8179 5.8282 24.8179V22.8179Z" fill="white"/>
</svg>
