<svg width="28" height="28" viewBox="0 0 28 28" fill="none" xmlns="http://www.w3.org/2000/svg">
<path d="M19 10L13 16.9862L10 15M10.2216 3.55775L7.89623 2.94345C7.1903 2.75696 6.47727 3.21945 6.35209 3.94502L5.93975 6.33507C5.86058 6.794 5.5367 7.17124 5.09788 7.31565L2.81261 8.06772C2.11884 8.29604 1.76674 9.07418 2.0501 9.75288L2.98349 11.9885C3.16272 12.4178 3.09233 12.9119 2.80053 13.2728L1.2809 15.1525C0.819564 15.7231 0.940188 16.5698 1.54212 16.9862L3.52489 18.3576C3.90562 18.6209 4.11108 19.075 4.05894 19.5378L3.78741 21.9483C3.70498 22.6801 4.26003 23.3266 4.98943 23.3484L7.39207 23.4202C7.85342 23.434 8.26948 23.7039 8.47356 24.1217L9.53636 26.2977C9.859 26.9582 10.6723 27.1993 11.2975 26.8196L13.3572 25.569C13.7527 25.3288 14.2473 25.3288 14.6428 25.569L16.7025 26.8196C17.3278 27.1993 18.141 26.9582 18.4636 26.2977L19.5264 24.1217C19.7305 23.7039 20.1466 23.434 20.6079 23.4202L23.0106 23.3484C23.74 23.3266 24.295 22.6801 24.2126 21.9483L23.9411 19.5378C23.8889 19.075 24.0944 18.6209 24.4751 18.3576L26.4579 16.9862C27.0598 16.5698 27.1804 15.7231 26.7191 15.1525L25.1995 13.2728C24.9077 12.9119 24.8373 12.4178 25.0165 11.9885L25.9499 9.75288C26.2333 9.07418 25.8812 8.29604 25.1874 8.06772L22.9021 7.31565C22.4633 7.17124 22.1394 6.794 22.0603 6.33507L21.6479 3.94502C21.5227 3.21945 20.8097 2.75696 20.1038 2.94345L17.7784 3.55775C17.3319 3.67571 16.8574 3.53507 16.5449 3.1922L14.9178 1.40656C14.4238 0.864479 13.5762 0.864479 13.0822 1.40656L11.4551 3.1922C11.1426 3.53507 10.6681 3.67571 10.2216 3.55775Z" stroke="white" stroke-width="2"/>
</svg>
