<svg width="21" height="20" viewBox="0 0 21 20" fill="none" xmlns="http://www.w3.org/2000/svg">
<path fill-rule="evenodd" clip-rule="evenodd" d="M9 17.146C12.866 17.146 16 14.012 16 10.146C16 6.28 12.866 3.146 9 3.146C5.13401 3.146 2 6.28 2 10.146C2 14.012 5.13401 17.146 9 17.146ZM9 19.146C13.9706 19.146 18 15.1166 18 10.146C18 5.17543 13.9706 1.146 9 1.146C4.02944 1.146 0 5.17543 0 10.146C0 15.1166 4.02944 19.146 9 19.146Z" fill="white"/>
<path fill-rule="evenodd" clip-rule="evenodd" d="M20.7633 1.29188L8.98203 15.2153L4.5874 9.77428L6.14328 8.5176L9.01788 12.0766L19.2366 0L20.7633 1.29188Z" fill="black"/>
</svg>
