<?xml version="1.0" standalone="no"?>
<!DOCTYPE svg PUBLIC "-//W3C//DTD SVG 20010904//EN"
 "http://www.w3.org/TR/2001/REC-SVG-20010904/DTD/svg10.dtd">
<svg version="1.0" xmlns="http://www.w3.org/2000/svg"
 width="700.000000pt" height="700.000000pt" viewBox="0 0 700.000000 700.000000"
 preserveAspectRatio="xMidYMid meet">
<metadata>
Created by potrace 1.14, written by Peter Selinger 2001-2017
</metadata>
<g transform="translate(0.000000,700.000000) scale(0.100000,-0.100000)"
fill="#000000" stroke="none">
<path d="M299 6977 c-144 -49 -239 -149 -283 -296 -14 -49 -16 -340 -16 -3166
0 -2068 3 -3130 10 -3166 22 -115 110 -238 207 -292 114 -61 -130 -57 3283
-57 3413 0 3169 -4 3283 57 71 39 149 128 183 209 l29 69 0 3165 0 3165 -23
57 c-44 110 -140 206 -249 250 l-58 23 -3150 2 -3150 3 -66 -23z"/>
</g>
</svg>
