<svg width="38" height="54" viewBox="0 0 38 54" fill="none" xmlns="http://www.w3.org/2000/svg">
<g filter="url(#filter0_d_396_8566)">
<path d="M19 3C10.1634 3 3 10.1634 3 19C3 28.7822 12.7378 44.7378 18.9999 51C25.2622 44.7378 35 28.7823 35 19C35 10.1634 27.8366 3 19 3Z" fill="#313131"/>
<path d="M4 19C4 10.7157 10.7157 4 19 4C27.2843 4 34 10.7157 34 19C34 23.6321 31.6682 29.883 28.4672 35.8471C25.5226 41.3335 21.9294 46.4186 18.9999 49.5597C16.0705 46.4185 12.4773 41.3335 9.53278 35.8471C6.33182 29.883 4 23.632 4 19Z" stroke="white" stroke-width="2"/>
</g>
<circle cx="19" cy="19" r="4" fill="#F9B122"/>
<defs>
<filter id="filter0_d_396_8566" x="0" y="0" width="38" height="54" filterUnits="userSpaceOnUse" color-interpolation-filters="sRGB">
<feFlood flood-opacity="0" result="BackgroundImageFix"/>
<feColorMatrix in="SourceAlpha" type="matrix" values="0 0 0 0 0 0 0 0 0 0 0 0 0 0 0 0 0 0 127 0" result="hardAlpha"/>
<feOffset/>
<feGaussianBlur stdDeviation="1.5"/>
<feColorMatrix type="matrix" values="0 0 0 0 0 0 0 0 0 0 0 0 0 0 0 0 0 0 0.6 0"/>
<feBlend mode="normal" in2="BackgroundImageFix" result="effect1_dropShadow_396_8566"/>
<feBlend mode="normal" in="SourceGraphic" in2="effect1_dropShadow_396_8566" result="shape"/>
</filter>
</defs>
</svg>
