<svg width="32" height="48" viewBox="3 3 32 48" fill="none" xmlns="http://www.w3.org/2000/svg"><g filter="url(#filter0_d_396_8566)"><path d="M19 3C10.163 3 3 10.163 3 19C3 28.782 12.738 44.738 19 51C25.262 44.738 35 28.782 35 19C35 10.163 27.837 3 19 3Z" fill="#313131"/><path d="M4 19C4 10.716 10.716 4 19 4C27.284 4 34 10.716 34 19C34 23.632 31.668 29.883 28.467 35.847C25.523 41.334 21.929 46.419 19 49.56C16.07 46.419 12.477 41.334 9.533 35.847C6.332 29.883 4 23.632 4 19Z" stroke="white" stroke-width="2"/></g><path cx="19" cy="19" r="4" fill="#F9B122" d="M23 19A4 4 0 0 1 19 23A4 4 0 0 1 15 19A4 4 0 0 1 23 19z"/><defs><filter id="filter0_d_396_8566" x="0" y="0" width="38" height="54" filterUnits="userSpaceOnUse" color-interpolation-filters="sRGB"><feFlood flood-opacity="0" result="BackgroundImageFix"/><feColorMatrix in="SourceAlpha" type="matrix" values="0 0 0 0 0 0 0 0 0 0 0 0 0 0 0 0 0 0 127 0" result="hardAlpha"/><feOffset/><feGaussianBlur stdDeviation="1.5"/><feColorMatrix type="matrix" values="0 0 0 0 0 0 0 0 0 0 0 0 0 0 0 0 0 0 0.6 0"/><feBlend mode="normal" in2="BackgroundImageFix" result="effect1_dropShadow_396_8566"/><feBlend mode="normal" in="SourceGraphic" in2="effect1_dropShadow_396_8566" result="shape"/></filter></defs></svg>